<?xml version="1.0" encoding="UTF-8" standalone="no"?>
<!DOCTYPE svg PUBLIC "-//W3C//DTD SVG 1.1//EN"
 "http://www.w3.org/Graphics/SVG/1.1/DTD/svg11.dtd">
<!-- Generated by graphviz version 12.1.0 (20240811.2233)
 -->
<!-- Pages: 1 -->
<svg width="365pt" height="98pt"
 viewBox="0.00 0.00 365.15 98.00" xmlns="http://www.w3.org/2000/svg" xmlns:xlink="http://www.w3.org/1999/xlink">
<g id="graph0" class="graph" transform="scale(1 1) rotate(0) translate(4 94)">
<polygon fill="white" stroke="none" points="-4,4 -4,-94 361.15,-94 361.15,4 -4,4"/>
<!-- input -->
<g id="node1" class="node">
<title>input</title>
<ellipse fill="none" stroke="black" cx="37.53" cy="-18" rx="37.53" ry="18"/>
<text text-anchor="middle" x="37.53" y="-13.32" font-family="Times,serif" font-size="14.00">input</text>
</g>
<!-- pandoc -->
<g id="node2" class="node">
<title>pandoc</title>
<ellipse fill="none" stroke="black" cx="158.06" cy="-18" rx="47" ry="18"/>
<text text-anchor="middle" x="158.06" y="-13.32" font-family="Times,serif" font-size="14.00">pandoc</text>
</g>
<!-- input&#45;&gt;pandoc -->
<g id="edge1" class="edge">
<title>input&#45;&gt;pandoc</title>
<path fill="none" stroke="black" d="M75.38,-18C82.96,-18 91.11,-18 99.22,-18"/>
<polygon fill="black" stroke="black" points="99.09,-21.5 109.09,-18 99.09,-14.5 99.09,-21.5"/>
</g>
<!-- output -->
<g id="node3" class="node">
<title>output</title>
<ellipse fill="none" stroke="black" cx="299.1" cy="-18" rx="44.37" ry="18"/>
<text text-anchor="middle" x="299.1" y="-13.32" font-family="Times,serif" font-size="14.00">output</text>
</g>
<!-- pandoc&#45;&gt;output -->
<g id="edge2" class="edge">
<title>pandoc&#45;&gt;output</title>
<path fill="none" stroke="black" d="M205.36,-18C217.46,-18 230.61,-18 243.11,-18"/>
<polygon fill="black" stroke="black" points="242.85,-21.5 252.85,-18 242.85,-14.5 242.85,-21.5"/>
</g>
<!-- panda -->
<g id="node4" class="node">
<title>panda</title>
<ellipse fill="none" stroke="black" cx="158.06" cy="-72" rx="41.74" ry="18"/>
<text text-anchor="middle" x="158.06" y="-67.33" font-family="Times,serif" font-size="14.00">panda</text>
</g>
<!-- pandoc&#45;&gt;panda -->
<g id="edge3" class="edge">
<title>pandoc&#45;&gt;panda</title>
<path fill="none" stroke="black" d="M186.07,-32.77C192.57,-38.26 194.69,-43.76 192.43,-49.26"/>
<polygon fill="black" stroke="black" points="189.92,-46.8 186.23,-56.74 195.31,-51.27 189.92,-46.8"/>
</g>
<!-- panda&#45;&gt;pandoc -->
<g id="edge4" class="edge">
<title>panda&#45;&gt;pandoc</title>
<path fill="none" stroke="black" d="M130.85,-57.9C124.16,-52.53 121.64,-47.17 123.3,-41.8"/>
<polygon fill="black" stroke="black" points="125.96,-44.09 129.14,-33.98 120.35,-39.9 125.96,-44.09"/>
</g>
<!-- diagrams -->
<g id="node5" class="node">
<title>diagrams</title>
<ellipse fill="none" stroke="black" cx="299.1" cy="-72" rx="58.05" ry="18"/>
<text text-anchor="middle" x="299.1" y="-67.33" font-family="Times,serif" font-size="14.00">diagrams</text>
</g>
<!-- panda&#45;&gt;diagrams -->
<g id="edge5" class="edge">
<title>panda&#45;&gt;diagrams</title>
<path fill="none" stroke="black" d="M200.02,-72C209.28,-72 219.35,-72 229.4,-72"/>
<polygon fill="black" stroke="black" points="229.18,-75.5 239.18,-72 229.18,-68.5 229.18,-75.5"/>
</g>
</g>
</svg>
