<?xml version="1.0" encoding="UTF-8" standalone="no"?>
<!DOCTYPE svg PUBLIC "-//W3C//DTD SVG 1.1//EN"
 "http://www.w3.org/Graphics/SVG/1.1/DTD/svg11.dtd">
<!-- Generated by graphviz version 7.1.0 (0)
 -->
<!-- Pages: 1 -->
<svg width="346pt" height="98pt"
 viewBox="0.00 0.00 346.48 98.00" xmlns="http://www.w3.org/2000/svg" xmlns:xlink="http://www.w3.org/1999/xlink">
<g id="graph0" class="graph" transform="scale(1 1) rotate(0) translate(4 94)">
<polygon fill="white" stroke="none" points="-4,4 -4,-94 342.48,-94 342.48,4 -4,4"/>
<!-- input -->
<g id="node1" class="node">
<title>input</title>
<ellipse fill="none" stroke="black" cx="35.1" cy="-18" rx="35.19" ry="18"/>
<text text-anchor="middle" x="35.1" y="-14.3" font-family="Times,serif" font-size="14.00">input</text>
</g>
<!-- pandoc -->
<g id="node2" class="node">
<title>pandoc</title>
<ellipse fill="none" stroke="black" cx="150.39" cy="-18" rx="44.39" ry="18"/>
<text text-anchor="middle" x="150.39" y="-14.3" font-family="Times,serif" font-size="14.00">pandoc</text>
</g>
<!-- input&#45;&gt;pandoc -->
<g id="edge1" class="edge">
<title>input&#45;&gt;pandoc</title>
<path fill="none" stroke="black" d="M70.7,-18C78.22,-18 86.36,-18 94.44,-18"/>
<polygon fill="black" stroke="black" points="94.26,-21.5 104.26,-18 94.26,-14.5 94.26,-21.5"/>
</g>
<!-- output -->
<g id="node3" class="node">
<title>output</title>
<ellipse fill="none" stroke="black" cx="284.53" cy="-18" rx="41.69" ry="18"/>
<text text-anchor="middle" x="284.53" y="-14.3" font-family="Times,serif" font-size="14.00">output</text>
</g>
<!-- pandoc&#45;&gt;output -->
<g id="edge2" class="edge">
<title>pandoc&#45;&gt;output</title>
<path fill="none" stroke="black" d="M195.02,-18C206.65,-18 219.32,-18 231.35,-18"/>
<polygon fill="black" stroke="black" points="231.12,-21.5 241.12,-18 231.12,-14.5 231.12,-21.5"/>
</g>
<!-- panda -->
<g id="node4" class="node">
<title>panda</title>
<ellipse fill="none" stroke="black" cx="150.39" cy="-72" rx="38.99" ry="18"/>
<text text-anchor="middle" x="150.39" y="-68.3" font-family="Times,serif" font-size="14.00">panda</text>
</g>
<!-- pandoc&#45;&gt;panda -->
<g id="edge3" class="edge">
<title>pandoc&#45;&gt;panda</title>
<path fill="none" stroke="black" d="M176.73,-32.77C182.92,-38.33 184.89,-43.9 182.63,-49.46"/>
<polygon fill="black" stroke="black" points="180.09,-47.04 176.55,-57.03 185.55,-51.42 180.09,-47.04"/>
</g>
<!-- panda&#45;&gt;pandoc -->
<g id="edge4" class="edge">
<title>panda&#45;&gt;pandoc</title>
<path fill="none" stroke="black" d="M125.17,-58.21C118.65,-52.77 116.15,-47.34 117.68,-41.91"/>
<polygon fill="black" stroke="black" points="120.34,-44.21 123.18,-34.01 114.59,-40.21 120.34,-44.21"/>
</g>
<!-- diagrams -->
<g id="node5" class="node">
<title>diagrams</title>
<ellipse fill="none" stroke="black" cx="284.53" cy="-72" rx="53.89" ry="18"/>
<text text-anchor="middle" x="284.53" y="-68.3" font-family="Times,serif" font-size="14.00">diagrams</text>
</g>
<!-- panda&#45;&gt;diagrams -->
<g id="edge5" class="edge">
<title>panda&#45;&gt;diagrams</title>
<path fill="none" stroke="black" d="M189.61,-72C198.8,-72 208.88,-72 218.91,-72"/>
<polygon fill="black" stroke="black" points="218.65,-75.5 228.65,-72 218.65,-68.5 218.65,-75.5"/>
</g>
</g>
</svg>
